<svg data-v-5f19e91b="" xmlns="http://www.w3.org/2000/svg" width="184.19215033763524" height="60" viewBox="0 0 184.19215033763524 60"><!----> <!----> <!----> <g data-v-5f19e91b="" id="aba9e55a-0df8-3237-657b-4781662a9288" fill="black" transform="matrix(3.7429821939532166,0,0,3.7429821939532166,-3.930128613401436,-15.683096083676297)"><path d="M10.33 4.20L10.33 4.20Q11.12 4.27 11.45 4.68L11.45 4.68L11.45 4.68Q11.79 5.10 11.79 5.82L11.79 5.82L11.79 5.82Q11.79 6.54 11.33 9.70L11.33 9.70L11.33 9.70Q10.86 12.87 10.86 14.13L10.86 14.13L10.86 14.13Q10.86 15.40 11.06 15.86L11.06 15.86L11.06 15.86Q10.14 15.55 9.78 15.04L9.78 15.04L9.78 15.04Q9.42 14.52 9.42 13.80L9.42 13.80L9.42 13.80Q9.42 13.09 9.74 10.79L9.74 10.79L9.74 10.79Q10.05 8.50 10.15 7.29L10.15 7.29L10.15 7.29Q9.58 8.40 8.24 10.43L8.24 10.43L8.24 10.43Q6.90 12.46 6.69 12.80L6.69 12.80L6.69 12.80Q6.36 12.99 5.99 12.99L5.99 12.99L5.99 12.99Q5.33 12.99 5.25 12.75L5.25 12.75L5.25 12.75Q5.10 12.36 4.77 11.50L4.77 11.50L4.77 11.50Q4.44 10.64 4.23 10.09L4.23 10.09L4.23 10.09Q3.61 8.55 3.12 7.50L3.12 7.50L3.12 7.50Q3.11 7.60 2.78 10.20L2.78 10.20L2.78 10.20Q2.45 12.80 2.45 14.34L2.45 14.34L2.45 14.34Q2.45 14.77 2.51 15.50L2.51 15.50L2.51 15.50Q1.05 15.50 1.05 14.62L1.05 14.62L1.05 14.62Q1.05 14.49 1.59 10.82L1.59 10.82L1.59 10.82Q2.13 7.14 2.13 5.70L2.13 5.70L2.13 5.63L2.13 5.63Q1.72 4.97 1.27 4.55L1.27 4.55L1.27 4.55Q1.61 4.19 2.10 4.19L2.10 4.19L2.10 4.19Q3.05 4.19 3.63 5.26L3.63 5.26L3.63 5.26Q4.21 6.33 6.22 11.61L6.22 11.61L6.22 11.61Q6.26 11.69 6.27 11.73L6.27 11.73L6.27 11.73Q6.40 11.54 6.96 10.72L6.96 10.72L6.96 10.72Q7.52 9.91 7.81 9.47L7.81 9.47L7.81 9.47Q8.09 9.03 8.60 8.21L8.60 8.21L8.60 8.21Q9.10 7.39 9.38 6.80L9.38 6.80L9.38 6.80Q10.16 5.21 10.33 4.20L10.33 4.20ZM19.14 7.32L19.14 7.32L19.14 7.32Q20.34 7.32 20.34 8.57L20.34 8.57L20.34 8.57Q20.34 8.79 20.08 10.54L20.08 10.54L20.08 10.54Q19.81 12.28 19.81 13.52L19.81 13.52L19.81 13.52Q19.81 14.77 20.08 15.72L20.08 15.72L20.08 15.72Q19.22 15.39 18.89 14.77L18.89 14.77L18.89 14.77Q18.56 14.15 18.56 13.24L18.56 13.24L18.56 13.24Q18.56 12.89 18.72 11.66L18.72 11.66L18.72 11.66Q18.30 13.26 17.42 14.34L17.42 14.34L17.42 14.34Q16.53 15.43 15.78 15.43L15.78 15.43L15.78 15.43Q14.18 15.43 14.18 13.10L14.18 13.10L14.18 13.10Q14.18 12.33 14.41 10.96L14.41 10.96L14.41 10.96Q14.64 9.58 14.64 8.86L14.64 8.86L14.64 8.86Q14.64 8.15 14.45 7.42L14.45 7.42L14.45 7.42Q15.34 7.42 15.79 7.73L15.79 7.73L15.79 7.73Q16.24 8.04 16.24 8.92L16.24 8.92L16.24 8.92Q16.24 9.39 15.95 10.88L15.95 10.88L15.95 10.88Q15.65 12.36 15.65 13.08L15.65 13.08L15.65 13.08Q15.65 14.11 16.30 14.11L16.30 14.11L16.30 14.11Q16.83 14.11 17.41 13.28L17.41 13.28L17.41 13.28Q17.99 12.45 18.38 11.12L18.38 11.12L18.38 11.12Q18.77 9.79 18.77 8.48L18.77 8.48L18.77 8.48Q18.77 7.90 18.69 7.35L18.69 7.35L18.69 7.35Q19.00 7.32 19.14 7.32ZM24.36 10.88L24.36 10.88Q24.86 9.06 25.57 8.20L25.57 8.20L25.57 8.20Q26.28 7.34 26.89 7.34L26.89 7.34L26.89 7.34Q27.50 7.34 27.80 7.79L27.80 7.79L27.80 7.79Q28.11 8.25 28.11 8.95L28.11 8.95L28.11 8.95Q28.11 9.65 27.75 10.16L27.75 10.16L27.75 10.16Q27.38 10.67 26.68 10.67L26.68 10.67L26.68 10.67Q26.46 10.67 26.33 10.64L26.33 10.64L26.33 10.64Q26.81 9.95 26.81 9.24L26.81 9.24L26.81 9.24Q26.81 8.74 26.40 8.74L26.40 8.74L26.40 8.74Q26.08 8.74 25.72 9.11L25.72 9.11L25.72 9.11Q25.35 9.49 25.02 10.16L25.02 10.16L25.02 10.16Q24.68 10.84 24.46 11.91L24.46 11.91L24.46 11.91Q24.23 12.99 24.23 14.24L24.23 14.24L24.23 14.24Q24.23 14.38 24.30 15.43L24.30 15.43L24.30 15.43Q23.94 15.46 23.88 15.46L23.88 15.46L23.88 15.46Q22.65 15.46 22.65 14.25L22.65 14.25L22.65 14.25Q22.65 13.97 22.95 12.10L22.95 12.10L22.95 12.10Q23.24 10.22 23.24 9.11L23.24 9.11L23.24 9.11Q23.24 7.99 23.00 7.06L23.00 7.06L23.00 7.06Q23.83 7.38 24.16 7.97L24.16 7.97L24.16 7.97Q24.49 8.57 24.49 9.36L24.49 9.36L24.49 9.36Q24.49 10.15 24.36 10.88L24.36 10.88ZM30.84 10.88L30.84 10.88Q31.35 9.06 32.05 8.20L32.05 8.20L32.05 8.20Q32.76 7.34 33.37 7.34L33.37 7.34L33.37 7.34Q33.98 7.34 34.29 7.79L34.29 7.79L34.29 7.79Q34.59 8.25 34.59 8.95L34.59 8.95L34.59 8.95Q34.59 9.65 34.23 10.16L34.23 10.16L34.23 10.16Q33.87 10.67 33.17 10.67L33.17 10.67L33.17 10.67Q32.94 10.67 32.82 10.64L32.82 10.64L32.82 10.64Q33.29 9.95 33.29 9.24L33.29 9.24L33.29 9.24Q33.29 8.74 32.89 8.74L32.89 8.74L32.89 8.74Q32.56 8.74 32.20 9.11L32.20 9.11L32.20 9.11Q31.84 9.49 31.50 10.16L31.50 10.16L31.50 10.16Q31.16 10.84 30.94 11.91L30.94 11.91L30.94 11.91Q30.72 12.99 30.72 14.24L30.72 14.24L30.72 14.24Q30.72 14.38 30.79 15.43L30.79 15.43L30.79 15.43Q30.42 15.46 30.37 15.46L30.37 15.46L30.37 15.46Q29.13 15.46 29.13 14.25L29.13 14.25L29.13 14.25Q29.13 13.97 29.43 12.10L29.43 12.10L29.43 12.10Q29.72 10.22 29.72 9.11L29.72 9.11L29.72 9.11Q29.72 7.99 29.48 7.06L29.48 7.06L29.48 7.06Q30.31 7.38 30.64 7.97L30.64 7.97L30.64 7.97Q30.97 8.57 30.97 9.36L30.97 9.36L30.97 9.36Q30.97 10.15 30.84 10.88L30.84 10.88ZM37.52 9.95L37.52 9.95L37.52 9.95Q37.11 10.65 36.90 11.39L36.90 11.39L36.90 11.39Q36.68 12.12 36.68 12.80L36.68 12.80L36.68 12.80Q36.68 13.47 36.98 13.94L36.98 13.94L36.98 13.94Q37.28 14.41 37.84 14.41L37.84 14.41L37.84 14.41Q38.63 14.41 39.31 13.55L39.31 13.55L39.31 13.55Q40.00 12.68 40.37 11.46L40.37 11.46L40.37 11.46Q40.74 10.23 40.74 9.19L40.74 9.19L40.74 9.19Q40.74 8.15 40.66 7.48L40.66 7.48L40.66 7.48Q40.99 7.45 41.08 7.45L41.08 7.45L41.08 7.45Q42.27 7.45 42.27 8.67L42.27 8.67L42.27 8.67Q42.27 8.93 41.93 10.83L41.93 10.83L41.93 10.83Q41.59 12.73 41.59 13.87L41.59 13.87L41.59 13.87Q41.59 15.01 42.03 15.89L42.03 15.89L42.03 15.89Q41.15 15.71 40.75 15.11L40.75 15.11L40.75 15.11Q40.35 14.52 40.35 13.40L40.35 13.40L40.35 13.40Q40.35 13.20 40.40 12.64L40.40 12.64L40.40 12.64Q40.03 13.97 39.07 14.78L39.07 14.78L39.07 14.78Q38.12 15.60 37.20 15.60L37.20 15.60L37.20 15.60Q36.29 15.60 35.73 14.90L35.73 14.90L35.73 14.90Q35.17 14.21 35.17 12.99L35.17 12.99L35.17 12.99Q35.17 11.76 35.62 10.59L35.62 10.59L35.62 10.59Q36.08 9.42 37.00 8.57L37.00 8.57L37.00 8.57Q37.91 7.71 39.05 7.71L39.05 7.71L39.05 7.71Q39.54 7.71 40.12 7.91L40.12 7.91L40.12 7.91Q39.30 8.12 38.61 8.68L38.61 8.68L38.61 8.68Q37.93 9.24 37.52 9.95ZM50.26 8.32L50.26 8.32L50.26 8.32Q50.26 8.81 49.84 9.67L49.84 9.67L49.84 9.67Q49.42 10.54 48.82 11.58L48.82 11.58L48.82 11.58Q48.22 12.61 47.61 13.78L47.61 13.78L47.61 13.78Q47.01 14.95 46.59 16.35L46.59 16.35L46.59 16.35Q46.17 17.74 46.17 19.01L46.17 19.01L46.17 19.01Q46.17 19.64 46.27 20.22L46.27 20.22L46.27 20.22Q45.37 20.01 45.06 19.59L45.06 19.59L45.06 19.59Q44.74 19.18 44.74 18.62L44.74 18.62L44.74 18.62Q44.74 17.82 45.72 15.58L45.72 15.58L45.72 15.58Q45.51 14.71 45.21 12.86L45.21 12.86L45.21 12.86Q44.90 11.00 44.58 9.63L44.58 9.63L44.58 9.63Q44.27 8.26 43.86 7.59L43.86 7.59L43.86 7.59Q44.39 7.22 44.77 7.22L44.77 7.22L44.77 7.22Q45.50 7.22 45.77 7.97L45.77 7.97L45.77 7.97Q46.03 8.72 46.23 10.84L46.23 10.84L46.23 10.84Q46.44 12.95 46.65 13.94L46.65 13.94L46.65 13.94Q49.39 8.78 49.39 7.04L49.39 7.04L49.39 7.04Q50.26 7.63 50.26 8.32Z"></path></g> <!----></svg>